INFESTATION 2009 DvDRip XviD

Format : AVI
Format/Info : Audio Video Interleave
File size : 556 MiB
Duration : 1h 27mn
Overall bit rate : 887 Kbps
Writing application
: MEncoder SVN-r29352(20090610-gcc4.3.3)
Writing library : MPlayer

Video
ID : 0
Format : MPEG-4 Visual
Format profile : AdvancedSimple@L5
Format settings, BVOP : Yes
Format settings, QPel : No
Format settings, GMC : No warppoints
Format settings, Matrix : Default (H.263)
Codec ID : XVID
Codec ID/Hint : XviD
Duration : 1h 27mn
Bit rate : 747 Kbps
Width : 640 pixels
Height : 360 pixels
Display aspect ratio : 16:9
Frame rate : 25.000 fps
Resolution : 24 bits
Colorimetry : 4:2:0
Scan type : Progressive
Bits/(Pixel*Frame) : 0.130
Stream size : 468 MiB (84%)
Writing library : XviD 1.2.1 (UTC 2008-12-04)

Audio
ID : 1
Format : MPEG Audio
Format version : Version 1
Format profile : Layer 3
Codec ID : 55
Codec ID/Hint : MP3
Duration : 1h 27mn
Bit rate mode : Constant
Bit rate : 128 Kbps
Channel(s) : 2 channels
Sampling rate : 44.1 KHz
Resolution : 16 bits
Video delay : 40ms
Stream size : 80.2 MiB (14%)
Alignment : Aligned on interleaves
Interleave, duration : 26 ms (0.65 video frame)
Interleave, preload duration : 522 ms

Cooper awakes to find himself nauseous, weak and covered in webbing in the office where he works. He struggles out and comes face to face with a grotesque, powerful, angry bug — the first in an infestation of monstrous proportions. He befriends a ragtag group of survivors including Sara, a feisty and attractive female — although the situation is dire, Cooper cannot help trying to solve his dating problems while also saving his life 
http://www.imdb.com/title/tt1020543/

PLEASE SEED AND ENJOY THANKS

screen shots
 
http://img217.imageshack.us/img217/7393/vlcsnap00007s.png 
http://img526.imageshack.us/img526/7535/vlcsnap00015b.png 
http://img180.imageshack.us/img180/3444/vlcsnap00023j.png 
http://img821.imageshack.us/img821/4749/vlcsnap00028.png

My Other Torrents 
http://thepiratebay.org/user/vicerock/